<?xml version="1.0" standalone="no"?>
<!DOCTYPE svg PUBLIC "-//W3C//DTD SVG 20010904//EN"
 "http://www.w3.org/TR/2001/REC-SVG-20010904/DTD/svg10.dtd">
<svg version="1.0" xmlns="http://www.w3.org/2000/svg"
 width="300.000000pt" height="300.000000pt" viewBox="0 0 300.000000 300.000000"
 preserveAspectRatio="xMidYMid meet">

<g transform="translate(0.000000,300.000000) scale(0.100000,-0.100000)"
fill="#000000" stroke="none">
<path d="M1320 2394 c-129 -28 -236 -98 -317 -209 l-44 -60 -127 -41 c-69 -23
-127 -45 -128 -50 -2 -5 44 -49 102 -98 84 -72 104 -94 104 -116 0 -14 7 -51
16 -81 42 -141 140 -260 272 -325 42 -21 78 -39 80 -40 2 -1 -16 -41 -40 -88
l-43 -85 -82 -1 -83 0 0 -30 0 -30 300 0 300 0 0 30 0 30 -90 0 -90 0 44 82
c43 78 48 83 94 99 27 9 59 22 71 28 19 11 39 2 161 -68 76 -45 140 -81 143
-81 2 0 -12 82 -31 181 l-35 181 29 87 c100 307 -78 620 -391 686 -85 18 -130
18 -215 -1z m164 -53 c3 -5 -10 -11 -30 -14 -85 -14 -239 -115 -280 -182 -9
-16 -20 -32 -23 -35 -15 -12 -43 -64 -64 -117 -33 -87 -31 -249 6 -352 14 -41
30 -77 34 -80 20 -15 45 -51 35 -51 -42 0 -151 146 -177 237 -19 66 -22 191
-5 253 54 199 241 346 447 349 28 1 54 -3 57 -8z m-558 -313 c-3 -13 -9 -40
-12 -60 l-6 -37 -44 36 c-24 19 -44 39 -44 44 0 7 76 35 104 38 4 1 6 -9 2
-21z m534 -673 c0 -3 -17 -39 -37 -80 l-38 -75 -63 0 -63 0 42 80 43 80 58 0
c32 0 58 -2 58 -5z"/>
<path d="M1492 988 c-8 -8 -12 -65 -12 -189 0 -148 3 -180 16 -193 19 -20 19
-20 39 0 14 15 19 15 55 0 50 -20 90 -12 128 25 89 88 37 259 -79 259 -22 0
-51 -7 -64 -16 l-25 -16 0 52 c0 76 -25 111 -58 78z m193 -181 c22 -32 19
-103 -5 -127 -47 -47 -108 -31 -130 35 -10 30 -9 41 7 72 26 54 96 65 128 20z"/>
<path d="M418 860 c-25 -26 -29 -36 -24 -63 7 -37 30 -55 94 -78 57 -19 75
-44 48 -64 -23 -17 -60 -11 -99 17 -22 15 -31 17 -43 8 -19 -16 -18 -22 6 -48
48 -51 148 -48 190 5 42 54 10 111 -74 132 -53 13 -74 34 -56 56 16 20 54 19
85 -1 27 -18 55 -13 55 10 0 29 -50 56 -102 56 -42 0 -54 -5 -80 -30z"/>
<path d="M720 874 c-43 -27 -64 -64 -68 -124 -3 -45 0 -61 20 -90 30 -44 70
-64 129 -64 55 0 99 25 99 56 0 19 -4 20 -37 13 -74 -15 -104 -10 -131 21
l-25 29 104 5 104 5 3 32 c9 95 -115 169 -198 117z m118 -56 c6 -6 12 -18 12
-27 0 -15 -9 -17 -62 -13 -72 5 -76 7 -62 30 20 30 79 35 112 10z"/>
<path d="M991 876 c-8 -9 -11 -56 -9 -142 l3 -129 25 0 c25 0 25 2 31 98 4 71
10 102 22 114 20 20 76 21 88 2 5 -8 9 -53 9 -100 0 -97 15 -132 47 -113 15 9
19 29 23 107 3 53 10 101 16 107 15 15 72 16 87 1 7 -7 14 -54 17 -114 4 -89
7 -102 24 -105 29 -6 36 16 36 114 0 99 -12 149 -40 164 -35 19 -87 11 -119
-16 l-31 -26 -21 26 c-16 20 -29 26 -60 26 -22 0 -51 -7 -64 -16 -22 -15 -26
-15 -40 0 -20 20 -29 20 -44 2z"/>
<path d="M1830 875 c-8 -10 -11 -46 -8 -114 3 -89 6 -102 27 -125 56 -60 154
-53 198 13 20 29 23 47 23 126 0 97 -10 122 -44 109 -13 -5 -16 -22 -17 -88
-1 -44 -4 -92 -8 -106 -9 -33 -52 -48 -86 -30 -24 13 -25 17 -25 102 0 49 -5
98 -10 109 -13 23 -33 25 -50 4z"/>
<path d="M2130 856 c0 -19 7 -26 30 -31 16 -4 44 -5 61 -3 17 2 32 1 32 -2 1
-3 -26 -41 -59 -85 -75 -100 -75 -100 -68 -119 9 -23 205 -24 224 -1 23 27 -5
45 -71 45 -33 0 -59 3 -59 7 0 4 17 27 38 52 124 151 123 155 -21 159 l-107 3
0 -25z"/>
<path d="M2393 864 c-9 -24 9 -34 63 -36 27 -1 52 -3 57 -5 7 -4 -20 -45 -86
-125 -25 -31 -37 -55 -35 -70 3 -22 7 -23 109 -26 92 -2 107 0 113 14 11 28
-13 43 -75 46 l-59 3 65 85 c36 47 65 94 65 107 0 23 -2 23 -105 23 -87 0
-107 -3 -112 -16z"/>
</g>
</svg>
